/* XPM */
static char *_[] = {
/* columns rows colors chars-per-pixel */
"64 64 3 1 ",
"  c #6A1D39",
". c #51473F",
"X c #441942",
/* pixels */
"XXXXXXXXXXXXXXXXXXXXXXXXXXXXXXXXXXXXXXXXXXXXXXXXXXXXXXXXXXXXXXXX",
"XXXXXXXXXXXXXXXXXXXXXXXXXXXXXXXXXXXXXXXXXXXXXXXXXXXXXXXXXXXXXXXX",
"XXXXXXXXXXXXXXXXXXXXXXXXXXXXXXXXXXXXXXXXXXXXXXXXXXXXXXXXXXXXXXXX",
"XXXXXXXXXXXXXXXXXXXXXXXXXXXXXXXXXXXXXXXXXXXXXXXXXXXXXXXXXXXXXXXX",
"XXXXXXXX................................................XXXXXXXX",
"XXXXXXXX................................................XXXXXXXX",
"XXXXXXXX................................................XXXXXXXX",
"XXXXXXXX................................................XXXXXXXX",
"XXXXXXXX................................................XXXXXXXX",
"XXXXXXXX................................................XXXXXXXX",
"XXXXXXXX................................................XXXXXXXX",
"XXXXXXXX................................................XXXXXXXX",
"XXXXXXXX................................                XXXXXXXX",
"XXXXXXXX................................                XXXXXXXX",
"XXXXXXXX................................                XXXXXXXX",
"XXXXXXXX................................                XXXXXXXX",
"XXXXXXXX............................    XXXXXXXXXXXXXXXXXXXXXXXX",
"XXXXXXXX............................    XXXXXXXXXXXXXXXXXXXXXXXX",
"XXXXXXXX............................    XXXXXXXXXXXXXXXXXXXXXXXX",
"XXXXXXXX............................    XXXXXXXXXXXXXXXXXXXXXXXX",
"XXXXXXXX................................................XXXXXXXX",
"XXXXXXXX................................................XXXXXXXX",
"XXXXXXXX................................................XXXXXXXX",
"XXXXXXXX................................................XXXXXXXX",
"XXXXXXXX        ........................................XXXXXXXX",
"XXXXXXXX        ........................................XXXXXXXX",
"XXXXXXXX        ........................................XXXXXXXX",
"XXXXXXXX        ........................................XXXXXXXX",
"XXXXXXXXXXXXXXXX    ....................................XXXXXXXX",
"XXXXXXXXXXXXXXXX    ....................................XXXXXXXX",
"XXXXXXXXXXXXXXXX    ....................................XXXXXXXX",
"XXXXXXXXXXXXXXXX    ....................................XXXXXXXX",
"XXXXXXXX................................................XXXXXXXX",
"XXXXXXXX................................................XXXXXXXX",
"XXXXXXXX................................................XXXXXXXX",
"XXXXXXXX................................................XXXXXXXX",
"XXXXXXXX................................................XXXXXXXX",
"XXXXXXXX................................................XXXXXXXX",
"XXXXXXXX................................................XXXXXXXX",
"XXXXXXXX................................................XXXXXXXX",
"XXXXXXXX................................................XXXXXXXX",
"XXXXXXXX................................................XXXXXXXX",
"XXXXXXXX................................................XXXXXXXX",
"XXXXXXXX................................................XXXXXXXX",
"XXXXXXXX................................................XXXXXXXX",
"XXXXXXXX................................................XXXXXXXX",
"XXXXXXXX................................................XXXXXXXX",
"XXXXXXXX................................................XXXXXXXX",
"XXXXXXXX................................................XXXXXXXX",
"XXXXXXXX................................................XXXXXXXX",
"XXXXXXXX................................................XXXXXXXX",
"XXXXXXXX................................................XXXXXXXX",
"XXXXXXXX................................................XXXXXXXX",
"XXXXXXXX................................................XXXXXXXX",
"XXXXXXXX................................................XXXXXXXX",
"XXXXXXXX................................................XXXXXXXX",
"XXXXXXXXXXXX                                        XXXXXXXXXXXX",
"XXXXXXXXXXXX                                        XXXXXXXXXXXX",
"XXXXXXXXXXXX                                        XXXXXXXXXXXX",
"XXXXXXXXXXXX                                        XXXXXXXXXXXX",
"XXXXXXXXXXXXXXXXXXXXXXXXXXXXXXXXXXXXXXXXXXXXXXXXXXXXXXXXXXXXXXXX",
"XXXXXXXXXXXXXXXXXXXXXXXXXXXXXXXXXXXXXXXXXXXXXXXXXXXXXXXXXXXXXXXX",
"XXXXXXXXXXXXXXXXXXXXXXXXXXXXXXXXXXXXXXXXXXXXXXXXXXXXXXXXXXXXXXXX",
"XXXXXXXXXXXXXXXXXXXXXXXXXXXXXXXXXXXXXXXXXXXXXXXXXXXXXXXXXXXXXXXX"
};
