/* XPM */
static char *_[] = {
/* columns rows colors chars-per-pixel */
"64 64 5 1 ",
"  c #101417",
". c #441942",
"X c #4C2672",
"o c #DF9EE9",
"O c #F6DBC4",
/* pixels */
"        ................................................        ",
"        ................................................        ",
"        ................................................        ",
"        ................................................        ",
"    ........XXXXOOOOOOOOOOOOOOOOXXXXoooooooooooooooo........    ",
"    ........XXXXOOOOOOOOOOOOOOOOXXXXoooooooooooooooo........    ",
"    ........XXXXOOOOOOOOOOOOOOOOXXXXoooooooooooooooo........    ",
"    ........XXXXOOOOOOOOOOOOOOOOXXXXoooooooooooooooo........    ",
"........XXXXOOOOOOOOOOOOOOOOOOOOOOOOoooooooooooooooooooo........",
"........XXXXOOOOOOOOOOOOOOOOOOOOOOOOoooooooooooooooooooo........",
"........XXXXOOOOOOOOOOOOOOOOOOOOOOOOoooooooooooooooooooo........",
"........XXXXOOOOOOOOOOOOOOOOOOOOOOOOoooooooooooooooooooo........",
"........OOOOOOOOOOOOOOOOOOOOOOOOOOOOOOOOOOOOOOOOoooooooooooo....",
"........OOOOOOOOOOOOOOOOOOOOOOOOOOOOOOOOOOOOOOOOoooooooooooo....",
"........OOOOOOOOOOOOOOOOOOOOOOOOOOOOOOOOOOOOOOOOoooooooooooo....",
"........OOOOOOOOOOOOOOOOOOOOOOOOOOOOOOOOOOOOOOOOoooooooooooo....",
"........OOOOOOOOOOOOOOOOOOOOOOOOOOOOOOOOOOOOOOOOOOOOoooooooo....",
"........OOOOOOOOOOOOOOOOOOOOOOOOOOOOOOOOOOOOOOOOOOOOoooooooo....",
"........OOOOOOOOOOOOOOOOOOOOOOOOOOOOOOOOOOOOOOOOOOOOoooooooo....",
"........OOOOOOOOOOOOOOOOOOOOOOOOOOOOOOOOOOOOOOOOOOOOoooooooo....",
"....XXXXOOOOOOOOOOOOOOOOOOOOOOOOOOOOOOOOOOOOOOOOOOOOoooooooo....",
"....XXXXOOOOOOOOOOOOOOOOOOOOOOOOOOOOOOOOOOOOOOOOOOOOoooooooo....",
"....XXXXOOOOOOOOOOOOOOOOOOOOOOOOOOOOOOOOOOOOOOOOOOOOoooooooo....",
"....XXXXOOOOOOOOOOOOOOOOOOOOOOOOOOOOOOOOOOOOOOOOOOOOoooooooo....",
"....XXXXOOOOOOOOOOOOOOOOOOOOOOOOooooooooooooOOOOOOOOoooooooo....",
"....XXXXOOOOOOOOOOOOOOOOOOOOOOOOooooooooooooOOOOOOOOoooooooo....",
"....XXXXOOOOOOOOOOOOOOOOOOOOOOOOooooooooooooOOOOOOOOoooooooo....",
"....XXXXOOOOOOOOOOOOOOOOOOOOOOOOooooooooooooOOOOOOOOoooooooo....",
"....ooooooooOOOOOOOOOOOOOOOOooooooooooooooooooooooooooooXXXX....",
"....ooooooooOOOOOOOOOOOOOOOOooooooooooooooooooooooooooooXXXX....",
"....ooooooooOOOOOOOOOOOOOOOOooooooooooooooooooooooooooooXXXX....",
"....ooooooooOOOOOOOOOOOOOOOOooooooooooooooooooooooooooooXXXX....",
"....ooooooooOOOOOOOOooooooooooooOOOOOOOOOOOOOOOOooooXXXXXXXX....",
"....ooooooooOOOOOOOOooooooooooooOOOOOOOOOOOOOOOOooooXXXXXXXX....",
"....ooooooooOOOOOOOOooooooooooooOOOOOOOOOOOOOOOOooooXXXXXXXX....",
"....ooooooooOOOOOOOOooooooooooooOOOOOOOOOOOOOOOOooooXXXXXXXX....",
"....ooooOOOOOOOOooooooooooooOOOOOOOOOOOOOOOOOOOOOOOOooooXXXX....",
"....ooooOOOOOOOOooooooooooooOOOOOOOOOOOOOOOOOOOOOOOOooooXXXX....",
"....ooooOOOOOOOOooooooooooooOOOOOOOOOOOOOOOOOOOOOOOOooooXXXX....",
"....ooooOOOOOOOOooooooooooooOOOOOOOOOOOOOOOOOOOOOOOOooooXXXX....",
"....ooooOOOOOOOOooooooooooooOOOOooooooooOOOOOOOOOOOOooooXXXX....",
"....ooooOOOOOOOOooooooooooooOOOOooooooooOOOOOOOOOOOOooooXXXX....",
"....ooooOOOOOOOOooooooooooooOOOOooooooooOOOOOOOOOOOOooooXXXX....",
"....ooooOOOOOOOOooooooooooooOOOOooooooooOOOOOOOOOOOOooooXXXX....",
"....XXXXOOOOOOOOooooooooooooooooooooooooooooOOOOOOOOooooXXXX....",
"....XXXXOOOOOOOOooooooooooooooooooooooooooooOOOOOOOOooooXXXX....",
"....XXXXOOOOOOOOooooooooooooooooooooooooooooOOOOOOOOooooXXXX....",
"....XXXXOOOOOOOOooooooooooooooooooooooooooooOOOOOOOOooooXXXX....",
"....XXXXXXXXOOOOOOOOooooooooooooooooooooooooOOOOOOOOooooXXXX....",
"....XXXXXXXXOOOOOOOOooooooooooooooooooooooooOOOOOOOOooooXXXX....",
"....XXXXXXXXOOOOOOOOooooooooooooooooooooooooOOOOOOOOooooXXXX....",
"....XXXXXXXXOOOOOOOOooooooooooooooooooooooooOOOOOOOOooooXXXX....",
"........XXXXXXXXXXXXXXXXXXXXooooooooooooOOOOOOOOooooXXXX....    ",
"........XXXXXXXXXXXXXXXXXXXXooooooooooooOOOOOOOOooooXXXX....    ",
"........XXXXXXXXXXXXXXXXXXXXooooooooooooOOOOOOOOooooXXXX....    ",
"........XXXXXXXXXXXXXXXXXXXXooooooooooooOOOOOOOOooooXXXX....    ",
"    ............XXXXXXXXXXXXXXXXooooooooooooooooXXXX........    ",
"    ............XXXXXXXXXXXXXXXXooooooooooooooooXXXX........    ",
"    ............XXXXXXXXXXXXXXXXooooooooooooooooXXXX........    ",
"    ............XXXXXXXXXXXXXXXXooooooooooooooooXXXX........    ",
"        ....................XXXXXXXXXXXXXXXXXXXX........        ",
"        ....................XXXXXXXXXXXXXXXXXXXX........        ",
"        ....................XXXXXXXXXXXXXXXXXXXX........        ",
"        ....................XXXXXXXXXXXXXXXXXXXX........        "
};
