/* XPM */
static char *C[] = {
/* columns rows colors chars-per-pixel */
"64 64 9 1 ",
"  c #221C1A",
". c #6A1D39",
"X c #51473F",
"o c #441942",
"O c #7C387B",
"+ c #C9587E",
"@ c #DBB54C",
"# c #DF9EE9",
"$ c #F6DBC4",
/* pixels */
"oooooooooooooooooooooooooooooooooooooooooooooooooooooooooooooooo",
"oooooooooooooooooooooooooooooooooooooooooooooooooooooooooooooooo",
"oooooooooooooooooooooooooooooooooooooooooooooooooooooooooooooooo",
"oooooooooooooooooooooooooooooooooooooooooooooooooooooooooooooooo",
"ooooooooXXXXXXXXXXXXXXXXXXXXXXXXXXXXXXXXXXXXXXXXXXXXXXXXoooooooo",
"ooooooooXXXXXXXXXXXXXXXXXXXXXXXXXXXXXXXXXXXXXXXXXXXXXXXXoooooooo",
"ooooooooXXXXXXXXXXXXXXXXXXXXXXXXXXXXXXXXXXXXXXXXXXXXXXXXoooooooo",
"ooooooooXXXXXXXXXXXXXXXXXXXXXXXXXXXXXXXXXXXXXXXXXXXXXXXXoooooooo",
"ooooooooXXXXXXXXXXXXXXXXXXXXXXXXXXXXXXXXXXXXXXXXXXXXXXXXoooooooo",
"ooooooooXXXXXXXXXXXXXXXXXXXXXXXXXXXXXXXXXXXXXXXXXXXXXXXXoooooooo",
"ooooooooXXXXXXXXXXXXXXXXXXXXXXXXXXXXXXXXXXXXXXXXXXXXXXXXoooooooo",
"ooooooooXXXXXXXXXXXXXXXXXXXXXXXXXXXXXXXXXXXXXXXXXXXXXXXXoooooooo",
"ooooooooXXXXXXXXXXXXXXXXXXXXXXXXXXXXXXXX................oooooooo",
"ooooooooXXXXXXXXXXXXXXXXXXXXXXXXXXXXXXXX................oooooooo",
"ooooooooXXXXXXXXXXXXXXXXXXXXXXXXXXXXXXXX................oooooooo",
"ooooooooXXXXXXXXXXXXXXXXXXXXXXXXXXXXXXXX................oooooooo",
"ooooooooXXXXXXXXXXXXXXXX@@@@@@@@++++++++oooooooooooooooooooooooo",
"ooooooooXXXXXXXXXXXXXXXX@@@@@@@@++++++++oooooooooooooooooooooooo",
"ooooooooXXXXXXXXXXXXXXXX@@@@@@@@++++++++oooooooooooooooooooooooo",
"ooooooooXXXXXXXXXXXXXXXX@@@@@@@@++++++++oooooooooooooooooooooooo",
"ooooooooXXXXXXXXXXXX@@@@$$$$$$$$####++++++++XXXXXXXXXXXXoooooooo",
"ooooooooXXXXXXXXXXXX@@@@$$$$$$$$####++++++++XXXXXXXXXXXXoooooooo",
"ooooooooXXXXXXXXXXXX@@@@$$$$$$$$####++++++++XXXXXXXXXXXXoooooooo",
"ooooooooXXXXXXXXXXXX@@@@$$$$$$$$####++++++++XXXXXXXXXXXXoooooooo",
"oooooooo........++++####$$$$$$$$####OOOOOOOO++++XXXXXXXXoooooooo",
"oooooooo........++++####$$$$$$$$####OOOOOOOO++++XXXXXXXXoooooooo",
"oooooooo........++++####$$$$$$$$####OOOOOOOO++++XXXXXXXXoooooooo",
"oooooooo........++++####$$$$$$$$####OOOOOOOO++++XXXXXXXXoooooooo",
"oooooooooooooooo++++OOOO########ooooooooOOOO++++XXXXXXXXoooooooo",
"oooooooooooooooo++++OOOO########ooooooooOOOO++++XXXXXXXXoooooooo",
"oooooooooooooooo++++OOOO########ooooooooOOOO++++XXXXXXXXoooooooo",
"oooooooooooooooo++++OOOO########ooooooooOOOO++++XXXXXXXXoooooooo",
"ooooooooXXXXXXXX++++OOOOOOOOOOOOooooooooOOOO####XXXXXXXXoooooooo",
"ooooooooXXXXXXXX++++OOOOOOOOOOOOooooooooOOOO####XXXXXXXXoooooooo",
"ooooooooXXXXXXXX++++OOOOOOOOOOOOooooooooOOOO####XXXXXXXXoooooooo",
"ooooooooXXXXXXXX++++OOOOOOOOOOOOooooooooOOOO####XXXXXXXXoooooooo",
"ooooooooXXXXXXXX++++OOOOooooOOOOOOOOOOOOOOOO@@@@XXXXXXXXoooooooo",
"ooooooooXXXXXXXX++++OOOOooooOOOOOOOOOOOOOOOO@@@@XXXXXXXXoooooooo",
"ooooooooXXXXXXXX++++OOOOooooOOOOOOOOOOOOOOOO@@@@XXXXXXXXoooooooo",
"ooooooooXXXXXXXX++++OOOOooooOOOOOOOOOOOOOOOO@@@@XXXXXXXXoooooooo",
"ooooooooXXXXXXXXXXXX++++OOOOOOOOOOOOOOOO@@@@XXXXXXXXXXXXoooooooo",
"ooooooooXXXXXXXXXXXX++++OOOOOOOOOOOOOOOO@@@@XXXXXXXXXXXXoooooooo",
"ooooooooXXXXXXXXXXXX++++OOOOOOOOOOOOOOOO@@@@XXXXXXXXXXXXoooooooo",
"ooooooooXXXXXXXXXXXX++++OOOOOOOOOOOOOOOO@@@@XXXXXXXXXXXXoooooooo",
"ooooooooXXXXXXXXXXXXXXXX++++++++####@@@@XXXXXXXXXXXXXXXXoooooooo",
"ooooooooXXXXXXXXXXXXXXXX++++++++####@@@@XXXXXXXXXXXXXXXXoooooooo",
"ooooooooXXXXXXXXXXXXXXXX++++++++####@@@@XXXXXXXXXXXXXXXXoooooooo",
"ooooooooXXXXXXXXXXXXXXXX++++++++####@@@@XXXXXXXXXXXXXXXXoooooooo",
"ooooooooXXXXXXXXXXXXXXXXXXXXXXXXXXXXXXXXXXXXXXXXXXXXXXXXoooooooo",
"ooooooooXXXXXXXXXXXXXXXXXXXXXXXXXXXXXXXXXXXXXXXXXXXXXXXXoooooooo",
"ooooooooXXXXXXXXXXXXXXXXXXXXXXXXXXXXXXXXXXXXXXXXXXXXXXXXoooooooo",
"ooooooooXXXXXXXXXXXXXXXXXXXXXXXXXXXXXXXXXXXXXXXXXXXXXXXXoooooooo",
"ooooooooXXXXXXXXXXXXXXXXXXXXXXXXXXXXXXXXXXXXXXXXXXXXXXXXoooooooo",
"ooooooooXXXXXXXXXXXXXXXXXXXXXXXXXXXXXXXXXXXXXXXXXXXXXXXXoooooooo",
"ooooooooXXXXXXXXXXXXXXXXXXXXXXXXXXXXXXXXXXXXXXXXXXXXXXXXoooooooo",
"ooooooooXXXXXXXXXXXXXXXXXXXXXXXXXXXXXXXXXXXXXXXXXXXXXXXXoooooooo",
"oooooooooooo........    ............................oooooooooooo",
"oooooooooooo........    ............................oooooooooooo",
"oooooooooooo........    ............................oooooooooooo",
"oooooooooooo........    ............................oooooooooooo",
"oooooooooooooooooooooooooooooooooooooooooooooooooooooooooooooooo",
"oooooooooooooooooooooooooooooooooooooooooooooooooooooooooooooooo",
"oooooooooooooooooooooooooooooooooooooooooooooooooooooooooooooooo",
"oooooooooooooooooooooooooooooooooooooooooooooooooooooooooooooooo"
};
