/* XPM */
static char *E[] = {
/* columns rows colors chars-per-pixel */
"64 64 7 1 ",
"  c #101417",
". c #6A1D39",
"X c #51473F",
"o c #441942",
"O c #4C2672",
"+ c #BD6D30",
"@ c #DBB54C",
/* pixels */
"oooooooooooooooooooooooo@@@@@@@@@@@@@@@@oooooooooooooooooooooooo",
"oooooooooooooooooooooooo@@@@@@@@@@@@@@@@oooooooooooooooooooooooo",
"oooooooooooooooooooooooo@@@@@@@@@@@@@@@@oooooooooooooooooooooooo",
"oooooooooooooooooooooooo@@@@@@@@@@@@@@@@oooooooooooooooooooooooo",
"ooooooooXXXXXXXX@@@@@@@@@@@@@@@@@@@@@@@@@@@@@@@@XXXXXXXXoooooooo",
"ooooooooXXXXXXXX@@@@@@@@@@@@@@@@@@@@@@@@@@@@@@@@XXXXXXXXoooooooo",
"ooooooooXXXXXXXX@@@@@@@@@@@@@@@@@@@@@@@@@@@@@@@@XXXXXXXXoooooooo",
"ooooooooXXXXXXXX@@@@@@@@@@@@@@@@@@@@@@@@@@@@@@@@XXXXXXXXoooooooo",
"ooooooooXXXX@@@@@@@@@@@@@@@@@@@@@@@@@@@@@@@@@@@@@@@@XXXXoooooooo",
"ooooooooXXXX@@@@@@@@@@@@@@@@@@@@@@@@@@@@@@@@@@@@@@@@XXXXoooooooo",
"ooooooooXXXX@@@@@@@@@@@@@@@@@@@@@@@@@@@@@@@@@@@@@@@@XXXXoooooooo",
"ooooooooXXXX@@@@@@@@@@@@@@@@@@@@@@@@@@@@@@@@@@@@@@@@XXXXoooooooo",
"ooooooooXXXX@@@@@@@@++++++++++++++++++++++++@@@@@@@@....oooooooo",
"ooooooooXXXX@@@@@@@@++++++++++++++++++++++++@@@@@@@@....oooooooo",
"ooooooooXXXX@@@@@@@@++++++++++++++++++++++++@@@@@@@@....oooooooo",
"ooooooooXXXX@@@@@@@@++++++++++++++++++++++++@@@@@@@@....oooooooo",
"oooooooo@@@@@@@@++++++++OOOOOOOOOOOOOOOO++++++++@@@@@@@@oooooooo",
"oooooooo@@@@@@@@++++++++OOOOOOOOOOOOOOOO++++++++@@@@@@@@oooooooo",
"oooooooo@@@@@@@@++++++++OOOOOOOOOOOOOOOO++++++++@@@@@@@@oooooooo",
"oooooooo@@@@@@@@++++++++OOOOOOOOOOOOOOOO++++++++@@@@@@@@oooooooo",
"oooooooo@@@@++++++++OOOOOOOOOOOOOOOOOOOOOOOO++++++++@@@@oooooooo",
"oooooooo@@@@++++++++OOOOOOOOOOOOOOOOOOOOOOOO++++++++@@@@oooooooo",
"oooooooo@@@@++++++++OOOOOOOOOOOOOOOOOOOOOOOO++++++++@@@@oooooooo",
"oooooooo@@@@++++++++OOOOOOOOOOOOOOOOOOOOOOOO++++++++@@@@oooooooo",
"oooooooo@@@@++++OOOOOOOO                OOOOOOOO++++@@@@oooooooo",
"oooooooo@@@@++++OOOOOOOO                OOOOOOOO++++@@@@oooooooo",
"oooooooo@@@@++++OOOOOOOO                OOOOOOOO++++@@@@oooooooo",
"oooooooo@@@@++++OOOOOOOO                OOOOOOOO++++@@@@oooooooo",
"oooooooo@@@@++++OOOO                        OOOO++++@@@@oooooooo",
"oooooooo@@@@++++OOOO                        OOOO++++@@@@oooooooo",
"oooooooo@@@@++++OOOO                        OOOO++++@@@@oooooooo",
"oooooooo@@@@++++OOOO                        OOOO++++@@@@oooooooo",
"oooooooo@@@@++++                                ++++@@@@oooooooo",
"oooooooo@@@@++++                                ++++@@@@oooooooo",
"oooooooo@@@@++++                                ++++@@@@oooooooo",
"oooooooo@@@@++++                                ++++@@@@oooooooo",
"oooooooo@@@@++++                                ++++@@@@oooooooo",
"oooooooo@@@@++++                                ++++@@@@oooooooo",
"oooooooo@@@@++++                                ++++@@@@oooooooo",
"oooooooo@@@@++++                                ++++@@@@oooooooo",
"ooooooooXXXX++++                                ++++XXXXoooooooo",
"ooooooooXXXX++++                                ++++XXXXoooooooo",
"ooooooooXXXX++++                                ++++XXXXoooooooo",
"ooooooooXXXX++++                                ++++XXXXoooooooo",
"ooooooooXXXX@@@@++++                        ++++@@@@XXXXoooooooo",
"ooooooooXXXX@@@@++++                        ++++@@@@XXXXoooooooo",
"ooooooooXXXX@@@@++++                        ++++@@@@XXXXoooooooo",
"ooooooooXXXX@@@@++++                        ++++@@@@XXXXoooooooo",
"ooooooooXXXXXXXX@@@@++++                ++++@@@@XXXXXXXXoooooooo",
"ooooooooXXXXXXXX@@@@++++                ++++@@@@XXXXXXXXoooooooo",
"ooooooooXXXXXXXX@@@@++++                ++++@@@@XXXXXXXXoooooooo",
"ooooooooXXXXXXXX@@@@++++                ++++@@@@XXXXXXXXoooooooo",
"ooooooooXXXXXXXXXXXXXXXX@@@@@@@@@@@@@@@@XXXXXXXXXXXXXXXXoooooooo",
"ooooooooXXXXXXXXXXXXXXXX@@@@@@@@@@@@@@@@XXXXXXXXXXXXXXXXoooooooo",
"ooooooooXXXXXXXXXXXXXXXX@@@@@@@@@@@@@@@@XXXXXXXXXXXXXXXXoooooooo",
"ooooooooXXXXXXXXXXXXXXXX@@@@@@@@@@@@@@@@XXXXXXXXXXXXXXXXoooooooo",
"oooooooooooo........................................oooooooooooo",
"oooooooooooo........................................oooooooooooo",
"oooooooooooo........................................oooooooooooo",
"oooooooooooo........................................oooooooooooo",
"oooooooooooooooooooooooooooooooooooooooooooooooooooooooooooooooo",
"oooooooooooooooooooooooooooooooooooooooooooooooooooooooooooooooo",
"oooooooooooooooooooooooooooooooooooooooooooooooooooooooooooooooo",
"oooooooooooooooooooooooooooooooooooooooooooooooooooooooooooooooo"
};
