/* XPM */
static char *P[] = {
/* columns rows colors chars-per-pixel */
"64 64 13 1 ",
"  c #060608",
". c #6A1D39",
"X c #51473F",
"o c #143464",
"O c #441942",
"+ c #1C69A1",
"@ c #285CC4",
"# c #249FDE",
"$ c #44B6DE",
"% c #67CFDD",
"& c #8B93AF",
"* c #B3B9D1",
"= c white",
/* pixels */
"OOOOOOOOOOOOOOOOOOOOOOOOOOOOOOOOOOOOOOOOOOOOOOOOOOOOOOOOOOOOOOOO",
"OOOOOOOOOOOOOOOOOOOOOOOOOOOOOOOOOOOOOOOOOOOOOOOOOOOOOOOOOOOOOOOO",
"OOOOOOOOOOOOOOOOOOOOOOOOOOOOOOOOOOOOOOOOOOOOOOOOOOOOOOOOOOOOOOOO",
"OOOOOOOOOOOOOOOOOOOOOOOOOOOOOOOOOOOOOOOOOOOOOOOOOOOOOOOOOOOOOOOO",
"OOOO            XXXXXXXXXXXXXXXXXXXXXXXXXXXXXXXX            OOOO",
"OOOO            XXXXXXXXXXXXXXXXXXXXXXXXXXXXXXXX            OOOO",
"OOOO            XXXXXXXXXXXXXXXXXXXXXXXXXXXXXXXX            OOOO",
"OOOO            XXXXXXXXXXXXXXXXXXXXXXXXXXXXXXXX            OOOO",
"OOOO    @@@@oooo    XXXXXXXXXXXXXXXXXXXXXXXX    oooo@@@@    OOOO",
"OOOO    @@@@oooo    XXXXXXXXXXXXXXXXXXXXXXXX    oooo@@@@    OOOO",
"OOOO    @@@@oooo    XXXXXXXXXXXXXXXXXXXXXXXX    oooo@@@@    OOOO",
"OOOO    @@@@oooo    XXXXXXXXXXXXXXXXXXXXXXXX    oooo@@@@    OOOO",
"OOOO    @@@@    oooo++++++++++++++++++++++++oooo    @@@@    OOOO",
"OOOO    @@@@    oooo++++++++++++++++++++++++oooo    @@@@    OOOO",
"OOOO    @@@@    oooo++++++++++++++++++++++++oooo    @@@@    OOOO",
"OOOO    @@@@    oooo++++++++++++++++++++++++oooo    @@@@    OOOO",
"OOOO    ####    ++++$$$$%%%%%%%%%%%%%%%%####++++    ####    OOOO",
"OOOO    ####    ++++$$$$%%%%%%%%%%%%%%%%####++++    ####    OOOO",
"OOOO    ####    ++++$$$$%%%%%%%%%%%%%%%%####++++    ####    OOOO",
"OOOO    ####    ++++$$$$%%%%%%%%%%%%%%%%####++++    ####    OOOO",
"OOOO    @@@@++++########%%%%%%%%%%%%%%%%########++++@@@@    OOOO",
"OOOO    @@@@++++########%%%%%%%%%%%%%%%%########++++@@@@    OOOO",
"OOOO    @@@@++++########%%%%%%%%%%%%%%%%########++++@@@@    OOOO",
"OOOO    @@@@++++########%%%%%%%%%%%%%%%%########++++@@@@    OOOO",
"OOOOOOOO    ############$$$$$$$$$$$$$$$$############    OOOOOOOO",
"OOOOOOOO    ############$$$$$$$$$$$$$$$$############    OOOOOOOO",
"OOOOOOOO    ############$$$$$$$$$$$$$$$$############    OOOOOOOO",
"OOOOOOOO    ############$$$$$$$$$$$$$$$$############    OOOOOOOO",
"OOOOOOOOoooo############++++++++++++++++############ooooOOOOOOOO",
"OOOOOOOOoooo############++++++++++++++++############ooooOOOOOOOO",
"OOOOOOOOoooo############++++++++++++++++############ooooOOOOOOOO",
"OOOOOOOOoooo############++++++++++++++++############ooooOOOOOOOO",
"OOOOOOOOoooo########++++&&&&====    &&&&++++########ooooOOOOOOOO",
"OOOOOOOOoooo########++++&&&&====    &&&&++++########ooooOOOOOOOO",
"OOOOOOOOoooo########++++&&&&====    &&&&++++########ooooOOOOOOOO",
"OOOOOOOOoooo########++++&&&&====    &&&&++++########ooooOOOOOOOO",
"OOOOOOOO    ++++####oooo****        ****oooo####++++    OOOOOOOO",
"OOOOOOOO    ++++####oooo****        ****oooo####++++    OOOOOOOO",
"OOOOOOOO    ++++####oooo****        ****oooo####++++    OOOOOOOO",
"OOOOOOOO    ++++####oooo****        ****oooo####++++    OOOOOOOO",
"OOOOOOOO    oooo++++oooo====        ====oooo++++oooo    OOOOOOOO",
"OOOOOOOO    oooo++++oooo====        ====oooo++++oooo    OOOOOOOO",
"OOOOOOOO    oooo++++oooo====        ====oooo++++oooo    OOOOOOOO",
"OOOOOOOO    oooo++++oooo====        ====oooo++++oooo    OOOOOOOO",
"OOOOOOOOXXXX    oooo    ****        ****    oooo    XXXXOOOOOOOO",
"OOOOOOOOXXXX    oooo    ****        ****    oooo    XXXXOOOOOOOO",
"OOOOOOOOXXXX    oooo    ****        ****    oooo    XXXXOOOOOOOO",
"OOOOOOOOXXXX    oooo    ****        ****    oooo    XXXXOOOOOOOO",
"OOOOOOOOXXXXXXXX            &&&&&&&&            XXXXXXXXOOOOOOOO",
"OOOOOOOOXXXXXXXX            &&&&&&&&            XXXXXXXXOOOOOOOO",
"OOOOOOOOXXXXXXXX            &&&&&&&&            XXXXXXXXOOOOOOOO",
"OOOOOOOOXXXXXXXX            &&&&&&&&            XXXXXXXXOOOOOOOO",
"OOOOOOOOXXXXXXXXXXXXXXXXXXXXXXXXXXXXXXXXXXXXXXXXXXXXXXXXOOOOOOOO",
"OOOOOOOOXXXXXXXXXXXXXXXXXXXXXXXXXXXXXXXXXXXXXXXXXXXXXXXXOOOOOOOO",
"OOOOOOOOXXXXXXXXXXXXXXXXXXXXXXXXXXXXXXXXXXXXXXXXXXXXXXXXOOOOOOOO",
"OOOOOOOOXXXXXXXXXXXXXXXXXXXXXXXXXXXXXXXXXXXXXXXXXXXXXXXXOOOOOOOO",
"OOOOOOOOOOOO........................................OOOOOOOOOOOO",
"OOOOOOOOOOOO........................................OOOOOOOOOOOO",
"OOOOOOOOOOOO........................................OOOOOOOOOOOO",
"OOOOOOOOOOOO........................................OOOOOOOOOOOO",
"OOOOOOOOOOOOOOOOOOOOOOOOOOOOOOOOOOOOOOOOOOOOOOOOOOOOOOOOOOOOOOOO",
"OOOOOOOOOOOOOOOOOOOOOOOOOOOOOOOOOOOOOOOOOOOOOOOOOOOOOOOOOOOOOOOO",
"OOOOOOOOOOOOOOOOOOOOOOOOOOOOOOOOOOOOOOOOOOOOOOOOOOOOOOOOOOOOOOOO",
"OOOOOOOOOOOOOOOOOOOOOOOOOOOOOOOOOOOOOOOOOOOOOOOOOOOOOOOOOOOOOOOO"
};
